<?xml version="1.0" encoding="utf-8"?>
<!-- Generator: Adobe Illustrator 22.0.0, SVG Export Plug-In . SVG Version: 6.00 Build 0)  -->
<svg version="1.1" id="Layer_1" xmlns="http://www.w3.org/2000/svg" xmlns:xlink="http://www.w3.org/1999/xlink" x="0px" y="0px"
	 width="273.5px" height="358.1px" viewBox="0 0 273.5 358.1" style="enable-background:new 0 0 273.5 358.1;" xml:space="preserve"
	>
<style type="text/css">
	.st0{fill:#005430;}
	.st1{fill:#FFFFFF;}
</style>
<g>
	<g>
		<circle class="st0" cx="137.2" cy="177.9" r="132.4"/>
		<circle class="st1" cx="137.2" cy="177.9" r="127.4"/>
		<g>
			<path class="st0" d="M79.8,135.4c0.9-0.6,1.9-1.2,3.1-1.5c-0.3,1.4-1.6,2.1-2.6,3c-4.6,3.5-8.7,7.5-12.5,11.7
				c-0.6,0.6-1.2,1.3-1.6,2.1c-1.6,4.7-1.8,9.8-2.6,14.7c-0.2,1.6,0,3.3-0.8,4.7c-1.7,2.3-4.3,3.5-6.4,5.3c-2.2,1.9-4.5,3.6-6.4,5.8
				c-1.6,4.2-2.1,8.7-2.7,13.1c1.8-0.6,3-2.2,4.2-3.5c2.9-3,6.1-5.6,9.3-8.2c1.5-1.2,3.6-1.9,5.3-0.9c3,1.5,5.5,3.7,8.2,5.6
				c2.4,1.8,5.4,3.2,6.9,6c0.6,1,0.7,2.1,0.6,3.3c-0.2,8.5-0.4,17.1,1.2,25.5c0.2,4.4,1.4,8.7,1.8,13.1c0.3,2.1-0.9,4.1-2.5,5.3
				c-2.4,1.9-4.9,3.8-7.4,5.6c-1.4,0.8-3,1.6-4.6,1.4c-1.9-0.3-3.6-1.3-5.2-2.3c-3.8-2.2-7.6-4.4-11-7.1c-0.3,0-0.9,0-1.2,0
				c0,1.4,0.8,2.7,1.4,3.9c1.6,3.2,3.1,6.5,5.2,9.4c1.9,1.8,4.5,2.8,6.8,4.1c2,1.2,4.5,1.8,5.9,3.8c1.2,2.1,1.7,4.5,2.7,6.6
				c1.2,2.6,1.9,5.8,4.5,7.4c3.6,2.3,7,4.7,10.6,7c0.8,0.4,1.7,1,2.6,1c-0.7-2.4-2.3-4.3-3.4-6.5c-1.5-3.1-3.2-6.2-4-9.6
				c-0.4-1.8,0.3-3.6,1.7-4.7c2.7-2.1,5.3-4.3,8.1-6.3c1.8-1.3,4.1-1.6,6.2-0.8c6.8,2.5,13.6,5,20.7,6.5c3.3,0.5,6.5,1.4,9.7,1.6
				c1.7,0,3.3,0.5,5,0.5c2.6,0.5,5.9,0.3,7.6,2.9c1.6,3,2.8,6.2,4.1,9.4c1,2.1,1.1,4.9-0.6,6.6c-3.2,3.7-7.3,6.5-11.3,9.2
				c-0.7,0.5-2.6,1.2-1.5,2.3c2.9,0.1,5.7-0.4,8.6-0.4c1.6-0.1,3.4,0.1,4.9-0.7c4.1-2.6,7.2-6.5,11.2-9.4c3.3-1.4,7-0.8,10.5-1
				c3.4-0.1,6.8-0.5,10.1-0.7c0.3,0,0.6,0.1,0.9,0.3c-8.3,5.3-17.6,9.1-27.2,11.5c-2.9,0.3-5.6,1.5-8.6,1.8
				c-6.5,0.6-13,1.6-19.5,0.6c-5.9-0.5-11.8-1.4-17.6-2.9c-14.9-4-29-11.3-40.1-22.1c-11.5-11.2-20.2-25.5-24-41.1
				c-1-2.9-1.1-5.9-1.8-8.9c-0.6-2.6-0.5-5.3-0.6-7.9c0-1.7-0.5-3.3-0.2-4.9c0.6-3.9,0-7.9,0.8-11.8c0.6-2.7,0.7-5.5,1.5-8.2
				c3.1-15.4,11.4-29.6,22.6-40.5C70.6,142,75,138.5,79.8,135.4z"/>
			<path class="st0" d="M111.6,121.4c4-0.4,7.9-1,11.9-1.4c3.9,0,7.8-0.1,11.7,0c6.7,0.9,13.5,1.6,20,3.6c3.1,1.1,6.3,1.9,9.3,3.3
				c1.8,0.9,4.2,1.2,5.2,3.2c-6.4-0.5-12.8,0.7-19,2.2c-1.8,0.4-3.7,0-5.1-1.2c-2.7-2.2-5.5-4.4-8.4-6.4c-1.9-1.4-4.4-1.2-6.5-1.7
				c-6.4-1.2-12.9-0.6-19.3-0.5C111.3,122.4,111.5,121.7,111.6,121.4z"/>
			<path class="st0" d="M254.8,180.8c0.1-3.6-0.5-7.1-0.6-10.7c-0.8-3.7-1.2-7.5-2.3-11.1c-4.4-16.9-15-31.9-28.4-43
				c-3-2.5-6.6-4.4-9.5-7.1c1.8,0.4,3.4,1.1,5,1.9c7.4,3.7,14.6,8.1,20.8,13.6c1.9,1.4,3.3,3.5,5.4,4.8c-0.2-0.9-0.2-1.9-0.6-2.7
				c-1.5-2.8-2.7-5.7-4.3-8.4c-10.9-19.7-31.2-34.1-53.5-37.3c-1.7,0-3.3-0.3-4.9-0.6c0.3-0.3,0.8-0.8,1-1.2c2.4-0.9,5-1,7.5-1.2
				c2.1-0.4,4.2,0.1,6.3,0.1c2.3,0,4.3,0.9,6.6,1.1c0-0.2-0.1-0.6-0.2-0.9c-4.2-2.3-8.5-4.6-13.2-6.1c-2.3-0.8-4.7-1.2-7-1.8
				c-2.1-0.6-4.3-0.3-6.4-0.6c-1.9-0.4-3.9,0.2-5.9,0.2c-2.5,0-4.8,1.1-7.2,1.4c-0.9-0.8-0.8-2.2-1.1-3.3c-0.6-2.2-1.5-4.4-3.1-6.1
				c-0.5-0.6-1.4-0.6-2.1-0.3c-3,1.1-5.6,3.2-7.6,5.7c-0.6,0.7-1.4,1.8-2.5,1.4c-1.9-0.9-3.6-2.5-5.6-3.2
				c-5.9-3.1-12.6-4.1-19.1-4.4c-4.1,0.3-8.2,0.7-12.2,1.4c0,0.2-0.1,0.5-0.1,0.7c4.7,0.8,9.2,2.6,13.4,4.9c1.6,0.8,3.5,1.5,4.1,3.4
				c-1.9,0-3.7-0.7-5.5-1.2c-7.8-1.4-15.9-1.7-23.7-0.3c-16.5,2.8-31.7,11.3-43.5,23c-1.2,1.2-2.4,2.3-3,3.9c1.6-0.3,3-1.1,4.4-1.7
				c3.9-1.8,8-3.3,12.1-4.6c6.3-1.6,12.8-3.6,19.4-2.8c-0.4,0.2-0.7,0.4-1.2,0.6c-4.1,1.2-8.2,2.1-12.2,3.6
				c-8.3,3-15.9,7.6-22.6,13.2c-4.7,4.1-9.2,8.4-13.2,13.2c-12.2,14.9-18.1,34.3-18.8,53.4c-1,8,0.4,15.9,1.1,23.8
				c0.8,3.8,1.3,7.6,2.4,11.3c1.1,3.7,1.4,7.8,3.8,11c0.2-1.8-0.4-3.6-0.5-5.3c-0.7-4.6-0.4-9.2-0.3-13.8c0.2-3,0.8-5.9,0.9-8.9
				c2.2-14.2,7.2-28,14.9-40.1c5.2-8.5,11.9-16,19.5-22.5c14.2-11.9,31.4-20.6,49.8-23.9c2.6-0.1,5-1.1,7.6-1
				c8.6-0.8,17.3-0.6,25.9,0.9c5,0.3,9.8,1.9,14.6,3.3c7.1,2.4,13.9,5.8,19.6,10.6c4.1,3.6,8,7.9,9.5,13.3c0.2,0.5,0.4,1.2,0.9,1.5
				c2.4,1.2,5.2,1,7.6,2.3c5.5,2.2,10.1,6.4,12.9,11.6c1.1,2.1,2.4,4.3,2.5,6.7c0.1,2.5,0.1,5-0.1,7.6c-1.3,6.3-5,12.1-10.1,15.9
				c-0.1,0-0.3,0-0.4,0c-0.4-2-0.6-4.1-1.6-5.9c-2-4-6.5-6.3-10.9-6.1c-6.3-0.3-12.5,1-18.4,3.2c-12.2,4.9-22.5,14.3-28.4,26.1
				c-4.6,9-6.1,19.5-4.7,29.5c2.3,17.4,13.3,33.6,29.2,41.4c7.7,4,16.4,5.6,24.9,5.9c2.4,0.2,4.1-1.9,5.8-3.4c3-2.7,5.3-6,7.5-9.4
				c2.6-4,4.9-8.2,6.7-12.6c0.3-0.9,1-1.6,1.8-2c0.3,3.3-1.2,6.2-1.9,9.3c-0.6,2.4-1.7,4.5-2.4,6.8c2.5-1.6,3.9-4.2,5.8-6.4
				c7.9-10.4,12.7-22.8,15.4-35.5c0.4-2.5,0.8-4.9,1.4-7.4c0.3-3.2,0.6-6.5,0.6-9.7c0.4-3,0.5-6,0.2-9c-0.5-2.5-0.1-5.1-0.6-7.6
				c-0.3-1.8-0.2-3.5-0.2-5.3c0.5,0.5,1.2,0.7,1.4,1.5c0.7,2.8,1.6,5.6,2,8.5c1.1,4,1.3,8.1,2,12.2c0.3,4.8,0.2,9.7,0.1,14.6
				c-0.8,11.3-3.7,22.5-8.2,32.9c-0.9,1.8-1.8,3.6-2.6,5.5c2.1-1.1,3.2-3.3,4.6-5.1c7.5-10,13.8-20.8,18-32.6
				C252.8,204.2,255.1,192.6,254.8,180.8z"/>
		</g>
	</g>
	<g>
		<g>
			<path class="st0" d="M136.2,318.8c1.8-0.1,9,0.7,11,2.3l-4.5,4.5c-2.6-0.9-5.3-1.1-8.1-0.7c-0.8,0.2-1.6,0.6-2.2,1.1
				c-0.9,0.8-1.2,2.1-0.8,3.2c0.2,0.6,0.6,1.1,1.2,1.4c3,1.6,6.5,1.5,9.7,2.8c2.5,1,5,2.6,6,5.2c0.8,3.1,0.7,6.7-1.4,9.3
				c-1.9,2.6-5,4-8.1,4.6c-2.4,0.2-4.8,0.1-7.3,0.1c-2.4-0.2-4.6-0.8-6.8-1.4l-1.9-0.7l4.4-4.3c1.4,0.3,3.5,0.6,5.3,0.9
				c2.4,0.1,5.2,0.4,7.1-1.3c0.5-0.3,0.8-0.8,0.9-1.4c0.2-1.1-0.2-2.2-1.1-3c-0.6-0.5-1.3-0.9-2-1.1c-3.6-0.8-7.3-1.4-10.5-3.3
				c-3.5-2.1-4.7-6.7-3.6-10.5c0.7-2.9,3-5.1,5.6-6.2C131.3,319.1,133.8,319.1,136.2,318.8z"/>
			<path class="st0" d="M82.8,320.5c1-0.8,2-0.9,3-0.8c0,4.8,0,9.7,0,14.5c0.8,0.1,1.3,0.1,1.8-0.6c3-4.7,5.9-9.4,9.1-13.9h9.1
				l-9.5,14.5c-0.8,1-0.8,2.5,0,3.6c3.2,4.8,6.4,9.6,9.5,14.5h-9l-9.2-13.9c-0.6-0.6-1.8-0.6-1.8-0.6c0,4.6,0,9.9,0,14.5
				c-2.5,0-5.4,0-7.9,0v-26.6L82.8,320.5z"/>
			<path class="st0" d="M185.6,319.9l-8.7,0l-11.4,32.5c1.2,0,3.1,0.3,4.1-0.6c2.3-1.9,4.3-4.1,6.3-6.3l10.2,0.1l2.6,6.8l7.8-0.1
				c-1.2-4.3-2.9-8.4-4.1-12.6C190,333.2,188,326.5,185.6,319.9z M177.3,340c0,0,1-3,2-5.7c0.5-1.8,1.2-3.6,1.7-4.6
				c0-0.1,0-0.1,0-0.1l3.7,10.6C184.7,340.2,179.2,340.2,177.3,340z"/>
		</g>
		<g>
			<g>
				<path class="st0" d="M137,8.4c1.8-2.3,5-2.2,7.6-2.7c4-0.2,8.8-0.4,11.8,2.8c1.2,1.1,1,2.8,0.8,4.2c-1,3.3-3.5,5.8-5.8,8.2
					c1.5,1,3.4,1.4,5.2,1.5c3.2,0.2,6.5,0.8,9.7,0.9c1.5,0.1,2.2-1.5,2.8-2.7c0.6-1.9,1.3-3.7,1.8-5.7c1.9-0.3,3.6,0.6,5.4,1.1
					c0.8,3-2.3,5.8-1.3,8.9c1.6,1.4,3.5,2.8,5.7,2.7c1.1,0.1,1.7-1,2.2-1.8c1.1-2.4,1.6-4.9,2.4-7.4c0.2-0.6,0.7-1.7,1.5-1.3
					c1.6,0.6,3.6,0.6,4.6,2c-0.7,2.9-1.8,5.8-2.7,8.6c-0.4,1,0.5,1.8,1.2,2.3c1.3,1.1,2.9,1.9,4.6,2.1c1.5-0.3,2.5-1.7,2.9-3.1
					c1-3.3,2.2-6.6,3-10c1.6-0.1,3.1,0.3,4.6,1c0.5,0.3,1.4,0.4,1.2,1.2c-1,3.8-2.3,7.5-3.5,11.2c-0.6,1.6,0.8,2.8,1.7,3.8
					c1.4,1.3,3.2,2,4.8,3.1c0.7,0.5,1.5,0.7,2.4,0.7c3.1-4.8,5.5-10.1,8.3-15.1c2-3.4,3.7-7,5.7-10.4c2.3-0.4,3.8,1.6,5.7,2.4
					c-0.9,1-1.3,2.2-1.9,3.4c-4.5,8.3-9.1,16.7-13.6,25.1c-0.5,0.8-1.2,1.6-1.2,2.5c-3.3-1.9-6.7-3.7-10.1-5.4
					c-2.2-1.1-3.6-3.2-4.8-5.3c-4.5,1.2-9.7-0.3-12.8-3.9c-0.9-1-2.3-0.4-3.3-0.2c-2.1,0.6-4.2-0.4-6.1-1c-2.2-0.7-3.7-2.5-5.5-3.9
					c-1.7,0-3.4,0.7-5.1,0.5c-2.5-0.4-5-0.2-7.5-0.8c-3.1-0.5-6.3-0.7-9.2-1.8c-1.6-0.5-2.9-1.4-4.5-1.8c-2,0.4-3.9,1.4-5.9,1.3
					c-3.8,0-7.6,0.5-11.4,0.4c-1.3,2.9-3,5.7-5.6,7.7c-3.1,2.4-6.9,3.9-10.7,4.7c-1.1-1.3-1.3-3-1.6-4.5c2.6-1.2,5.5-1.5,7.8-3.2
					c1.3-1,3.2-2,2.9-3.9c-3.5,0.3-7.3,0.8-10.5-1.1c-3.7-1.9-5.5-6.5-4.5-10.5c0.5-2.7,2-5.1,4.2-6.7c3-2.3,7.1-2.7,10.7-1.8
					c2.6,1,4.5,3.3,5.4,5.8c0.8,2.5,0.9,5.2,1.5,7.7c0.8,1.1,2.3,0.6,3.4,0.7c3.2-0.2,6.5,0.5,9.7-0.5c-0.2-0.6-0.3-1.3-0.7-1.8
					c-1.7-2.2-3.4-4.3-4.6-6.8C135.4,10.5,136.3,9.4,137,8.4z M141.2,10.8c0.3,2.3,2,4.1,3.3,5.8c0.7,0.8,1.7,2.3,3,1.6
					c1.8-1.3,3.6-3,4.2-5.3c-0.5-1.1-1.4-2-2.4-2.5C146.6,9.9,143.8,10.2,141.2,10.8z M112.5,13.1c-1.4,1.6-1.1,3.9-0.8,5.8
					c0.8,1.3,1.9,2.6,3.4,3c2.1,0.2,4.3,0,6.4-0.5c-0.4-2.1,0.1-4.2-0.7-6.2c-0.6-1.2-1.1-2.7-2.4-3.4
					C116.5,10.4,113.8,11.3,112.5,13.1z"/>
			</g>
			<path class="st0" d="M87,8.9c2.1,0.3,3.8,1.5,5.5,2.6c3.1,2,6.1,4.5,7.5,8.1c1,2.7,1,6.2-1.2,8.3c-2.7,3.1-7,3.8-10.7,4.8
				c-1.8,0.4-3.5,1.2-5.3,1.2c-0.1-1.7-0.6-3.3-0.6-4.9c2.9-0.6,5.6-1.5,8.5-2.1c1.9-0.5,4.4-1.4,4.4-3.8c-1.4-4.1-5.5-6.3-9.1-8.2
				c-0.5-0.4-1.7-0.6-1.3-1.4C85.1,11.8,86.4,10.5,87,8.9z"/>
			<g>
				<path class="st0" d="M67.3,18.7c1.8-0.4,3.4-1.6,5.2-1.5c0.4,0.6,0.7,1.3,1.1,2c1.8,4.9,3.6,9.8,5.6,14.6
					c0.2,0.6,0.2,1.2,0.3,1.7c-5.5,1.9-10.8,4.3-16.3,6.3c-1.6,0.6-3.2-0.4-4.8-0.3c-1.8,1.6-3.4,3.4-5.6,4.2
					c-3,1.2-6.9,1.6-9.5-0.8c-2.1-1.9-3-4.9-2.4-7.7c1.1-4.7,4.6-8.3,8-11.5c1.3-0.9-0.9-3,0.6-3.8c1.4-0.7,2.8-2,4.5-1.7
					c2.6,4.4,4.7,9.1,7.3,13.5c0.4,0.6,0.8,1.2,1.3,1.7c1.5,0.5,3-0.2,4.3-0.7c1.6-0.7,3.4-1,4.7-2.1c0.1-1-0.1-2-0.6-3
					c-1.2-2.7-2.1-5.5-3.3-8.3C67.4,20.6,67.3,19.7,67.3,18.7z M46.3,35.9c-0.1,1.5-0.6,3.3,0.8,4.4c1,1.2,2.6,1,4,0.9
					c2.1-0.8,3.8-2.4,4.9-4.3c-1.2-2-2.1-4.2-3.4-6.1c-0.3-0.7-1.2-1-1.8-0.5C48.9,31.9,47.2,33.7,46.3,35.9z"/>
			</g>
			<path class="st0" d="M233.8,29.1c1.8-2.6,3.4-5.3,5.3-7.8c0.3,1.1,1.8,1.2,2.5,1.9c0.7,0.6,2.3,1.1,1.8,2.3
				c-5.8,9.1-11.8,18.1-17.7,27.1c-0.5,0.5-0.8,1.6-1.7,1.3c-1.3-0.7-2.6-1.6-3.8-2.5c-0.6-0.5-0.1-1.4,0.2-1.9
				C224.9,42.7,229.5,36,233.8,29.1z"/>
			<circle class="st0" cx="47.7" cy="15.6" r="3"/>
			<circle class="st0" cx="41.1" cy="19.2" r="3"/>
			<circle class="st0" cx="75.2" cy="44.9" r="3"/>
			<circle class="st0" cx="81.8" cy="42.3" r="3"/>
		</g>
		<g>
			<polygon class="st1" points="197.3,208.7 188.4,208.7 185,212.7 185,227.4 189.8,227.4 189.8,219.4 196.3,219.4 196.3,215.6 
				189.8,215.6 189.8,212.9 197.3,212.9 			"/>
			<polygon class="st1" points="213.7,208.7 204.7,208.7 201.4,212.7 201.3,227.4 206.2,227.4 206.2,219.4 212.6,219.4 212.6,215.6 
				206.1,215.6 206.1,212.9 213.7,212.9 			"/>
			<path class="st1" d="M154.8,208.7c1-0.1,4.9,0.4,6,1.2l-2.4,2.4c-1.4-0.5-3-0.6-4.4-0.4c-0.4,0.1-0.8,0.3-1.2,0.6
				c-0.5,0.4-0.7,1.2-0.5,1.8c0.1,0.3,0.3,0.6,0.6,0.7c1.7,0.9,3.6,0.8,5.3,1.5c1.4,0.6,2.7,1.4,3.3,2.9c0.5,1.7,0.4,3.7-0.7,5.1
				c-1.1,1.4-2.7,2.2-4.4,2.5c-1.3,0.1-2.7,0.1-4,0c-1.3-0.1-2.5-0.5-3.7-0.8l-1.1-0.4l2.4-2.4c0.7,0.2,1.9,0.3,2.9,0.5
				c1.3,0,2.9,0.2,3.9-0.7c0.3-0.2,0.4-0.5,0.5-0.7c0.1-0.6-0.1-1.2-0.6-1.6c-0.3-0.3-0.7-0.5-1.1-0.6c-1.9-0.5-4-0.8-5.7-1.8
				c-1.9-1.2-2.6-3.6-1.9-5.7c0.4-1.6,1.7-2.8,3-3.4C152.1,208.8,153.5,208.9,154.8,208.7z"/>
			<path class="st1" d="M175.1,208.7l-5,0l-6.5,18.6c0.7,0,1.8,0.2,2.4-0.4c1.3-1.1,2.4-2.4,3.6-3.6l5.9,0l1.5,3.9h4.5
				c-0.7-2.4-1.7-4.9-2.4-7.3C177.7,216.3,176.5,212.5,175.1,208.7z M170,220c0,0,0.6-1.8,1.2-3.4c0.3-1.1,0.7-2.1,1-2.7
				c0,0,0-0.1,0-0.1l2.2,6.2C174.5,220.2,171.1,220.2,170,220z"/>
		</g>
	</g>
</g>
</svg>
